<?xml version="1.0" encoding="utf-8"?>
<!-- Generator: Adobe Illustrator 25.1.0, SVG Export Plug-In . SVG Version: 6.00 Build 0)  -->
<svg version="1.1" id="Layer_1" xmlns="http://www.w3.org/2000/svg" xmlns:xlink="http://www.w3.org/1999/xlink" x="0px" y="0px"
	 viewBox="0 0 200 200" style="enable-background:new 0 0 200 200;" xml:space="preserve">
<style type="text/css">
	.st0{fill:#FFFFFF;}
</style>
<path class="st0" d="M57.5,106l85.5,85.5c3.3,3.3,8.7,3.3,12.1,0l6.3-6.3L115.3,106c-1.7-2.1-1.8-8.3,0-12.1l46.1-79.3l-6.3-6.3
	c-3.3-3.3-8.7-3.3-12.1,0L57.5,94C54.2,97.3,54.2,102.7,57.5,106z"/>
<path d="M49.3,106l85.5,85.5c2.8,2.8,7,3.2,10.3,1.3c-0.6-0.4-1.2-0.8-1.8-1.3L57.8,106c-3.3-3.3-3.3-8.7,0-12.1l85.5-85.5
	c0.5-0.5,1.1-1,1.8-1.3c-3.3-1.9-7.5-1.5-10.3,1.3L49.3,94C46,97.3,46,102.7,49.3,106z"/>
<path class="st0" d="M370.7,106.2l85.5,85.5c3.3,3.3,8.7,3.3,12.1,0l6.3-6.3l-79.3-79.3c-3.3-3.3-3.3-8.7,0-12.1l79.3-79.3l-6.3-6.3
	c-3.3-3.3-8.7-3.3-12.1,0l-85.5,85.5C367.4,97.5,367.4,102.9,370.7,106.2z"/>
</svg>
